<?xml version="1.0" standalone="no"?>
<!DOCTYPE svg PUBLIC "-//W3C//DTD SVG 20010904//EN"
 "http://www.w3.org/TR/2001/REC-SVG-20010904/DTD/svg10.dtd">
<svg version="1.0" xmlns="http://www.w3.org/2000/svg"
 width="256.000000pt" height="256.000000pt" viewBox="0 0 256.000000 256.000000"
 preserveAspectRatio="xMidYMid meet">

<g transform="translate(0.000000,256.000000) scale(0.100000,-0.100000)"
fill="#000000" stroke="none">
<path d="M1372 2508 c-7 -7 -12 -34 -12 -60 l0 -48 -82 0 c-244 0 -504 -92
-698 -248 -303 -242 -462 -638 -409 -1017 10 -76 42 -212 52 -222 5 -5 77 15
77 22 0 1 -7 22 -15 46 -9 24 -22 84 -30 134 -92 564 294 1098 860 1190 50 8
125 15 168 15 l77 0 0 -48 c0 -49 12 -72 40 -72 8 0 65 31 125 68 92 56 110
71 110 92 0 21 -18 36 -110 92 -113 70 -132 77 -153 56z m138 -148 c0 -4 -16
-17 -35 -29 l-35 -20 0 49 0 49 35 -20 c19 -12 35 -25 35 -29z"/>
<path d="M2065 2507 c-109 -37 -186 -103 -232 -202 -24 -51 -28 -73 -28 -145
0 -72 4 -94 28 -146 36 -77 104 -145 182 -181 51 -24 73 -28 145 -28 72 0 94
4 145 28 78 36 146 104 182 181 24 52 28 74 28 146 0 72 -4 94 -28 146 -57
123 -177 204 -311 211 -41 1 -88 -3 -111 -10z m185 -83 c105 -31 190 -149 190
-264 0 -150 -130 -280 -280 -280 -150 0 -280 130 -280 280 0 149 126 277 276
279 22 1 64 -6 94 -15z"/>
<path d="M2187 2203 l-96 -97 -29 27 -28 27 -30 -31 -29 -30 47 -45 c26 -24
55 -44 65 -44 10 0 71 53 136 118 l117 118 -28 27 -28 27 -97 -97z"/>
<path d="M915 1711 c-11 -5 -31 -21 -45 -36 l-25 -27 0 -409 0 -409 33 -32 32
-33 352 -3 352 -3 113 113 114 113 -3 332 -3 333 -33 32 -32 33 -418 2 c-229
1 -426 -2 -437 -6z m833 -83 c7 -7 12 -25 12 -40 l0 -28 -420 0 -420 0 0 28
c0 15 5 33 12 40 17 17 799 17 816 0z m12 -368 l0 -220 -88 0 c-55 0 -92 -4
-100 -12 -8 -8 -12 -45 -12 -100 l0 -88 -308 0 c-226 0 -311 3 -320 12 -9 9
-12 94 -12 320 l0 308 420 0 420 0 0 -220z m-60 -303 c0 -2 -13 -16 -30 -32
l-30 -29 0 32 c0 29 3 32 30 32 17 0 30 -1 30 -3z"/>
<path d="M1200 1320 l0 -40 40 0 40 0 0 40 0 40 -40 0 -40 0 0 -40z"/>
<path d="M1400 1320 l0 -40 40 0 40 0 0 40 0 40 -40 0 -40 0 0 -40z"/>
<path d="M1600 1320 l0 -40 40 0 40 0 0 40 0 40 -40 0 -40 0 0 -40z"/>
<path d="M1000 1160 l0 -40 40 0 40 0 0 40 0 40 -40 0 -40 0 0 -40z"/>
<path d="M1200 1160 l0 -40 40 0 40 0 0 40 0 40 -40 0 -40 0 0 -40z"/>
<path d="M1400 1160 l0 -40 40 0 40 0 0 40 0 40 -40 0 -40 0 0 -40z"/>
<path d="M1600 1160 l0 -40 40 0 40 0 0 40 0 40 -40 0 -40 0 0 -40z"/>
<path d="M1000 1000 l0 -40 40 0 40 0 0 40 0 40 -40 0 -40 0 0 -40z"/>
<path d="M1200 1000 l0 -40 40 0 40 0 0 40 0 40 -40 0 -40 0 0 -40z"/>
<path d="M1400 1000 l0 -40 40 0 40 0 0 40 0 40 -40 0 -40 0 0 -40z"/>
<path d="M2290 1639 c-33 -13 -32 -10 -15 -60 9 -24 22 -84 30 -134 92 -564
-294 -1098 -860 -1190 -49 -8 -125 -15 -167 -15 l-78 0 0 48 c0 49 -12 72 -40
72 -8 0 -64 -31 -125 -68 -92 -56 -110 -71 -110 -92 0 -21 18 -36 110 -92 61
-37 117 -68 126 -68 27 0 39 23 39 72 l0 48 78 0 c682 1 1211 613 1108 1285
-17 113 -44 205 -59 204 -7 0 -23 -5 -37 -10z m-1170 -1439 l0 -49 -35 20
c-19 12 -35 25 -35 29 0 6 52 44 68 49 1 1 2 -21 2 -49z"/>
<path d="M305 747 c-109 -37 -186 -103 -232 -202 -24 -51 -28 -73 -28 -145 0
-72 4 -94 28 -146 36 -77 104 -145 182 -181 51 -24 73 -28 145 -28 72 0 94 4
145 28 78 36 146 104 182 181 24 52 28 74 28 146 0 72 -4 94 -28 146 -57 123
-177 204 -311 211 -41 1 -88 -3 -111 -10z m185 -83 c103 -31 190 -151 190
-263 0 -151 -130 -281 -280 -281 -150 0 -280 130 -280 280 0 149 126 277 276
279 22 1 64 -6 94 -15z"/>
<path d="M360 580 c0 -12 -10 -25 -26 -32 -28 -13 -54 -55 -54 -88 0 -57 45
-96 120 -102 23 -2 35 -8 35 -18 0 -18 -53 -26 -68 -11 -14 14 -87 15 -87 1 0
-24 27 -63 52 -76 16 -8 28 -23 28 -34 0 -17 7 -20 40 -20 33 0 40 3 40 20 0
11 12 26 28 34 48 25 64 83 37 135 -15 31 -51 49 -105 53 -23 2 -35 8 -35 18
0 18 53 26 68 11 14 -14 87 -14 87 -1 0 24 -30 67 -54 78 -16 7 -26 20 -26 32
0 17 -7 20 -40 20 -33 0 -40 -3 -40 -20z"/>
</g>
</svg>
